<svg xmlns="http://www.w3.org/2000/svg" viewBox="0 0 1166.35 584.03"><defs><style>.cls-1{fill:#cfcfcf;}.cls-2{fill:#fff;}.cls-3{fill:#9a255d;}.cls-4{fill:#adcf86;}.cls-5{fill:none;stroke:#4c4c4c;}.cls-18,.cls-5{stroke-miterlimit:10;}.cls-10,.cls-11,.cls-15,.cls-6,.cls-7{fill:#4c4c4c;}.cls-7{font-size:11.13px;}.cls-10,.cls-11,.cls-15,.cls-7{font-family:Gilroy-Regular, Gilroy Regular;}.cls-8{letter-spacing:-0.02em;}.cls-9{letter-spacing:-0.02em;}.cls-10{font-size:9.1px;}.cls-11{font-size:7.08px;}.cls-12{letter-spacing:0.01em;}.cls-13{letter-spacing:0em;}.cls-14{letter-spacing:-0.05em;}.cls-15{font-size:20.23px;}.cls-16{letter-spacing:-0.03em;}.cls-17,.cls-18{fill:#e00d06;}.cls-18{stroke:#e00d06;stroke-width:0.15px;}</style></defs><title>2</title><g id="Слой_8" data-name="Слой 8"><path class="cls-1" d="M0,0,0,584H1166.35l0-584ZM66,34.27V94.21H9.21V65.8H51.82v-2H9.21V34.27Z" transform="translate(0 0)"/><path class="cls-2" d="M5,4.69V574.93H1088.36V564.6h71V4.69Zm4.27,59V34.12H66.07V94.06H9.28V65.65H51.89v-2Z" transform="translate(0 0)"/><rect class="cls-1" x="9.21" y="94.21" width="56.79" height="3.29"/><rect class="cls-1" x="5.2" y="520.15" width="513.14" height="2.01"/><rect class="cls-1" x="5.2" y="521.11" width="513.14" height="43.64"/><rect class="cls-2" x="518.35" y="574.93" width="569.94" height="2.01"/><rect class="cls-3" x="1145.13" y="47.56" width="14.16" height="2.01"/><polygon class="cls-1" points="1161.3 4.14 4.91 4.14 4.91 583.94 518.35 583.94 518.35 520.15 7.21 520.15 7.21 7 1145.08 7 1145.08 49.56 1159.29 49.56 1159.29 463.35 1146.19 463.35 1145.08 463.35 1145.08 520.15 1088.29 520.15 1088.29 580.33 1161.3 580.33 1161.3 4.14"/></g><g id="Layer_10" data-name="Layer 10"><rect class="cls-4" x="9.21" y="292.97" width="338.76" height="225.17"/><polygon class="cls-2" points="487.91 321.37 487.91 307.18 465.59 307.18 465.59 349.77 416.96 349.77 416.96 321.41 349.97 321.41 349.97 501.93 445.32 501.93 445.32 459.31 573.11 459.31 573.11 321.37 487.91 321.37"/><polygon class="cls-2" points="1143.08 51.59 1141.59 51.59 1029.52 51.59 1029.52 9 773.9 9 744.18 9 591.35 9 591.35 231.26 591.33 231.26 591.33 251.52 591.35 251.52 591.35 262.56 633.93 262.56 633.93 335.57 591.33 335.57 591.33 574.93 1086.33 574.93 1086.33 518.13 1114.68 518.13 1114.68 461.35 1139.23 461.35 1143.08 461.35 1157.31 461.35 1157.31 51.59 1143.08 51.59"/><rect class="cls-1" x="1116.68" y="463.35" width="26.39" height="54.79"/><polygon class="cls-1" points="1088.29 9.01 1088.29 29.29 1086.29 29.29 1086.29 9.01 1031.48 9.01 1031.48 49.56 1143.08 49.56 1143.08 9.01 1088.29 9.01"/><polygon class="cls-2" points="435.17 9 435.17 122.59 406.76 122.59 406.76 234.17 589.31 234.17 589.31 132.26 589.31 122.59 589.31 9 435.17 9"/><polygon class="cls-1" points="589.36 264.56 589.36 236.17 404.77 236.17 404.77 120.61 409.17 120.61 409.17 120.58 433.18 120.58 433.18 65.79 406.78 65.79 406.78 93.2 404.77 93.2 404.77 51.57 364.18 51.57 364.18 51.57 66.02 51.57 66.02 94.2 9.22 94.2 9.22 292.96 349.99 292.96 349.99 292.96 347.98 292.96 347.98 321.4 419.01 321.4 419 347.75 463.57 347.75 463.57 305.16 489.97 305.16 489.97 319.36 619.76 319.36 619.76 321.36 583.1 321.37 575.15 321.37 575.15 461.34 520.37 461.34 520.37 574.92 532.57 574.92 532.57 546.53 534.58 546.53 534.58 574.92 560.97 574.92 560.97 534.34 532.57 534.34 532.57 532.34 577.16 532.34 577.16 534.34 562.97 534.34 562.97 574.92 589.36 574.92 589.36 520.14 532.57 520.14 532.57 475.54 577.16 475.54 577.16 491.74 548.77 491.74 548.77 518.13 577.16 518.13 577.16 518.13 589.36 518.13 589.36 333.54 631.94 333.54 631.94 264.56 589.36 264.56"/><rect class="cls-1" x="534.55" y="491.75" width="12.2" height="26.39"/><rect class="cls-1" x="534.55" y="477.55" width="12.2" height="12.19"/><rect class="cls-1" x="548.76" y="477.55" width="26.38" height="12.19"/><polygon class="cls-1" points="447.35 503.96 347.97 503.96 347.97 518.14 461.55 518.14 461.55 489.75 518.34 489.75 518.34 461.35 447.35 461.35 447.35 503.96"/><rect class="cls-1" x="463.55" y="491.75" width="54.79" height="26.39"/><rect class="cls-1" x="406.76" y="9" width="26.4" height="54.79"/><polygon class="cls-1" points="66 34.27 66 94.21 9.21 94.21 9.21 65.8 51.82 65.8 51.82 63.79 9.21 63.79 9.21 34.27 66 34.27"/><polygon class="cls-2" points="347.97 207.81 347.97 207.8 321.57 207.8 321.57 179.38 236.39 179.38 236.39 290.96 347.97 290.96 347.97 248.38 362.17 248.38 362.17 207.81 347.97 207.81"/><rect class="cls-2" x="323.58" y="179.38" width="38.59" height="26.4"/><rect class="cls-2" x="349.97" y="250.36" width="12.2" height="40.61"/><polygon class="cls-2" points="404.76 9 404.76 49.59 362.17 49.59 362.17 177.38 234.38 177.38 234.38 290.96 9.21 290.96 9.21 94.21 66 94.21 66 34.27 9.21 34.27 9.21 9 404.76 9"/><rect class="cls-2" x="378.36" y="307.18" width="40.63" height="12.2"/><polygon class="cls-2" points="547.7 269 547.7 285.6 542.32 290.97 525.73 290.97 520.35 285.6 520.35 269 525.73 263.63 542.32 263.63 547.7 269"/><rect class="cls-1" x="587.29" y="9" width="2.07" height="227.18"/></g><g id="Layer_12" data-name="Layer 12"><circle class="cls-5" cx="179.02" cy="405.59" r="33.15"/><rect class="cls-5" x="45.59" y="339.25" width="266.86" height="132.66"/><path class="cls-5" d="M45.58,339.51c30.2,0,54.67,29.59,54.67,66.08s-24.47,66.07-54.67,66.07" transform="translate(0 0)"/><path class="cls-5" d="M312.44,339.51c-30.19,0-54.67,29.59-54.67,66.08s24.48,66.07,54.67,66.07" transform="translate(0 0)"/><line class="cls-5" x1="179.02" y1="339.2" x2="179.02" y2="471.88"/><polyline class="cls-5" points="45.59 386.76 64.41 386.76 64.41 424.36 45.59 424.36"/><polyline class="cls-5" points="312.45 386.76 293.62 386.76 293.62 424.36 312.45 424.36"/><polygon class="cls-2" points="635.15 108.02 672.69 70.48 999.25 70.48 1036.41 107.65 1036.41 225.7 999.65 262.46 672.15 262.46 635.16 225.47 635.15 108.02"/><path class="cls-6" d="M999.9,263.09h-328l-37.35-37.36v-118l37.9-37.91H999.5L1037,107.39V226Zm-327.5-1.25h327l36.39-36.4V107.91L999,71.11h-326l-37.17,37.17V225.21Z" transform="translate(0 0)"/><path class="cls-6" d="M635.78,134h-1.25a64.22,64.22,0,0,1,64.15-64.14v1.25A63,63,0,0,0,635.78,134" transform="translate(0 0)"/><path class="cls-6" d="M1037,134h-1.25a63,63,0,0,0-62.89-62.89V69.86A64.21,64.21,0,0,1,1037,134" transform="translate(0 0)"/><path class="cls-6" d="M698.68,263.09a64.23,64.23,0,0,1-64.15-64.15h1.25a63,63,0,0,0,62.9,62.9Z" transform="translate(0 0)"/><path class="cls-6" d="M972.89,263.09v-1.25a63,63,0,0,0,62.89-62.9H1037a64.22,64.22,0,0,1-64.14,64.15" transform="translate(0 0)"/><rect class="cls-6" x="665.92" y="79.2" width="1.25" height="174.51"/><rect class="cls-6" x="1004.7" y="79.2" width="1.25" height="174.51"/><path class="cls-6" d="M962,149.42a33.6,33.6,0,1,1,33.59-33.6A33.63,33.63,0,0,1,962,149.42m0-65.94a32.35,32.35,0,1,0,32.34,32.34A32.38,32.38,0,0,0,962,83.48" transform="translate(0 0)"/><path class="cls-6" d="M962,118.44a2.24,2.24,0,1,1,2.24-2.24,2.25,2.25,0,0,1-2.24,2.24m0-3.23a1,1,0,1,0,1,1,1,1,0,0,0-1-1" transform="translate(0 0)"/><rect class="cls-6" x="955.11" y="78.87" width="1.25" height="4.61"/><rect class="cls-6" x="967.86" y="78.87" width="1.25" height="4.61"/><rect class="cls-6" x="955.11" y="148.39" width="1.25" height="4.61"/><rect class="cls-6" x="967.86" y="148.39" width="1.25" height="4.61"/><polygon class="cls-6" points="958.14 114.56 948.15 114.56 948.15 113.31 956.89 113.31 956.89 106.95 958.14 106.95 958.14 114.56"/><polygon class="cls-6" points="975.8 114.56 965.82 114.56 965.82 106.95 967.07 106.95 967.07 113.31 975.8 113.31 975.8 114.56"/><polygon class="cls-6" points="958.14 124.8 956.89 124.8 956.89 118.44 948.15 118.44 948.15 117.19 958.14 117.19 958.14 124.8"/><polygon class="cls-6" points="967.07 124.8 965.82 124.8 965.82 117.19 975.8 117.19 975.8 118.44 967.07 118.44 967.07 124.8"/><path class="cls-6" d="M962,251.4a33.6,33.6,0,1,1,33.59-33.6A33.64,33.64,0,0,1,962,251.4m0-65.94a32.35,32.35,0,1,0,32.34,32.34A32.38,32.38,0,0,0,962,185.46" transform="translate(0 0)"/><path class="cls-6" d="M962,220.41a2.24,2.24,0,1,1,2.24-2.23,2.24,2.24,0,0,1-2.24,2.23m0-3.22a1,1,0,1,0,1,1,1,1,0,0,0-1-1" transform="translate(0 0)"/><rect class="cls-6" x="955.11" y="180.85" width="1.25" height="4.61"/><rect class="cls-6" x="967.86" y="180.85" width="1.25" height="4.61"/><rect class="cls-6" x="955.11" y="250.37" width="1.25" height="4.61"/><rect class="cls-6" x="967.86" y="250.37" width="1.25" height="4.61"/><polygon class="cls-6" points="958.14 216.54 948.15 216.54 948.15 215.29 956.89 215.29 956.89 208.92 958.14 208.92 958.14 216.54"/><polygon class="cls-6" points="975.8 216.54 965.82 216.54 965.82 208.92 967.07 208.92 967.07 215.29 975.8 215.29 975.8 216.54"/><polygon class="cls-6" points="958.14 226.78 956.89 226.78 956.89 220.41 948.15 220.41 948.15 219.16 958.14 219.16 958.14 226.78"/><polygon class="cls-6" points="967.07 226.78 965.82 226.78 965.82 219.16 975.8 219.16 975.8 220.41 967.07 220.41 967.07 226.78"/><path class="cls-6" d="M710,149.42a33.6,33.6,0,1,1,33.6-33.6,33.63,33.63,0,0,1-33.6,33.6m0-65.94a32.35,32.35,0,1,0,32.35,32.34A32.38,32.38,0,0,0,710,83.48" transform="translate(0 0)"/><path class="cls-6" d="M710,118.44a2.24,2.24,0,1,1,2.24-2.24,2.25,2.25,0,0,1-2.24,2.24m0-3.23a1,1,0,1,0,1,1,1,1,0,0,0-1-1" transform="translate(0 0)"/><rect class="cls-6" x="703.09" y="78.87" width="1.25" height="4.61"/><rect class="cls-6" x="715.84" y="78.87" width="1.25" height="4.61"/><rect class="cls-6" x="703.09" y="148.39" width="1.25" height="4.61"/><rect class="cls-6" x="715.84" y="148.39" width="1.25" height="4.61"/><polygon class="cls-6" points="706.12 114.56 696.14 114.56 696.14 113.31 704.87 113.31 704.87 106.95 706.12 106.95 706.12 114.56"/><polygon class="cls-6" points="723.78 114.56 713.8 114.56 713.8 106.95 715.05 106.95 715.05 113.31 723.78 113.31 723.78 114.56"/><polygon class="cls-6" points="706.12 124.8 704.87 124.8 704.87 118.44 696.14 118.44 696.14 117.19 706.12 117.19 706.12 124.8"/><polygon class="cls-6" points="715.05 124.8 713.8 124.8 713.8 117.19 723.78 117.19 723.78 118.44 715.05 118.44 715.05 124.8"/><path class="cls-6" d="M710,251.4a33.6,33.6,0,1,1,33.6-33.6A33.64,33.64,0,0,1,710,251.4m0-65.94a32.35,32.35,0,1,0,32.35,32.34A32.38,32.38,0,0,0,710,185.46" transform="translate(0 0)"/><path class="cls-6" d="M710,220.41a2.24,2.24,0,1,1,2.24-2.23,2.24,2.24,0,0,1-2.24,2.23m0-3.22a1,1,0,1,0,1,1,1,1,0,0,0-1-1" transform="translate(0 0)"/><rect class="cls-6" x="703.09" y="180.85" width="1.25" height="4.61"/><rect class="cls-6" x="715.84" y="180.85" width="1.25" height="4.61"/><rect class="cls-6" x="703.09" y="250.37" width="1.25" height="4.61"/><rect class="cls-6" x="715.84" y="250.37" width="1.25" height="4.61"/><polygon class="cls-6" points="706.12 216.54 696.14 216.54 696.14 215.29 704.87 215.29 704.87 208.92 706.12 208.92 706.12 216.54"/><polygon class="cls-6" points="723.78 216.54 713.8 216.54 713.8 208.92 715.05 208.92 715.05 215.29 723.78 215.29 723.78 216.54"/><polygon class="cls-6" points="706.12 226.78 704.87 226.78 704.87 220.41 696.14 220.41 696.14 219.16 706.12 219.16 706.12 226.78"/><polygon class="cls-6" points="715.05 226.78 713.8 226.78 713.8 219.16 723.78 219.16 723.78 220.41 715.05 220.41 715.05 226.78"/><path class="cls-6" d="M836,200.73a33.6,33.6,0,1,1,33.6-33.6,33.63,33.63,0,0,1-33.6,33.6m0-65.94a32.35,32.35,0,1,0,32.35,32.34A32.38,32.38,0,0,0,836,134.79" transform="translate(0 0)"/><rect class="cls-6" x="835.35" y="70.48" width="1.25" height="191.98"/><rect class="cls-6" x="885.03" y="70.48" width="1.25" height="191.98"/><rect class="cls-6" x="785.55" y="70.48" width="1.25" height="191.98"/><path class="cls-6" d="M675.74,176h-9.2v-1.25h8.68c6.91-7.14,1.12-14.89,0-16.29h-8.65V157.2h9.22l.18.21c.09.1,8.58,9.79,0,18.39Z" transform="translate(0 0)"/><path class="cls-6" d="M1005.32,176h-9.2l-.18-.19c-8.61-8.6-.11-18.29,0-18.39l.19-.21h9.22v1.25h-8.65c-1.15,1.4-6.94,9.15,0,16.29h8.68Z" transform="translate(0 0)"/><polygon class="cls-2" points="635.15 373.62 672.69 336.08 999.25 336.08 1036.41 373.24 1036.41 491.29 999.65 528.05 672.15 528.05 635.16 491.06 635.15 373.62"/><path class="cls-6" d="M999.9,528.68h-328l-37.35-37.35v-118l37.9-37.91H999.5L1037,373V491.55Zm-327.5-1.25h327L1035.78,491V373.5L999,336.7h-326l-37.17,37.18V490.81Z" transform="translate(0 0)"/><path class="cls-6" d="M635.78,399.6h-1.25a64.23,64.23,0,0,1,64.15-64.15v1.25a63,63,0,0,0-62.9,62.9" transform="translate(0 0)"/><path class="cls-6" d="M1037,399.6h-1.25a63,63,0,0,0-62.89-62.9v-1.25A64.22,64.22,0,0,1,1037,399.6" transform="translate(0 0)"/><path class="cls-6" d="M698.68,528.68a64.22,64.22,0,0,1-64.15-64.14h1.25a63,63,0,0,0,62.9,62.89Z" transform="translate(0 0)"/><path class="cls-6" d="M972.89,528.68v-1.25a63,63,0,0,0,62.89-62.89H1037a64.21,64.21,0,0,1-64.14,64.14" transform="translate(0 0)"/><rect class="cls-6" x="665.92" y="344.8" width="1.25" height="174.51"/><rect class="cls-6" x="1004.7" y="344.8" width="1.25" height="174.51"/><path class="cls-6" d="M962,415a33.6,33.6,0,1,1,33.59-33.59A33.63,33.63,0,0,1,962,415m0-65.94a32.35,32.35,0,1,0,32.34,32.35A32.38,32.38,0,0,0,962,349.07" transform="translate(0 0)"/><path class="cls-6" d="M962,384a2.24,2.24,0,1,1,2.24-2.24A2.24,2.24,0,0,1,962,384m0-3.23a1,1,0,1,0,1,1,1,1,0,0,0-1-1" transform="translate(0 0)"/><rect class="cls-6" x="955.11" y="344.47" width="1.25" height="4.61"/><rect class="cls-6" x="967.86" y="344.47" width="1.25" height="4.61"/><rect class="cls-6" x="955.11" y="413.98" width="1.25" height="4.61"/><rect class="cls-6" x="967.86" y="413.98" width="1.25" height="4.61"/><polygon class="cls-6" points="958.14 380.16 948.15 380.16 948.15 378.91 956.89 378.91 956.89 372.54 958.14 372.54 958.14 380.16"/><polygon class="cls-6" points="975.8 380.16 965.82 380.16 965.82 372.54 967.07 372.54 967.07 378.91 975.8 378.91 975.8 380.16"/><polygon class="cls-6" points="958.14 390.4 956.89 390.4 956.89 384.03 948.15 384.03 948.15 382.78 958.14 382.78 958.14 390.4"/><polygon class="cls-6" points="967.07 390.4 965.82 390.4 965.82 382.78 975.8 382.78 975.8 384.03 967.07 384.03 967.07 390.4"/><path class="cls-6" d="M962,517a33.6,33.6,0,1,1,33.59-33.6A33.63,33.63,0,0,1,962,517m0-65.94a32.35,32.35,0,1,0,32.34,32.34A32.38,32.38,0,0,0,962,451.05" transform="translate(0 0)"/><path class="cls-6" d="M962,486a2.24,2.24,0,1,1,2.24-2.24A2.25,2.25,0,0,1,962,486m0-3.23a1,1,0,1,0,1,1,1,1,0,0,0-1-1" transform="translate(0 0)"/><rect class="cls-6" x="955.11" y="446.45" width="1.25" height="4.61"/><rect class="cls-6" x="967.86" y="446.45" width="1.25" height="4.61"/><rect class="cls-6" x="955.11" y="515.96" width="1.25" height="4.61"/><rect class="cls-6" x="967.86" y="515.96" width="1.25" height="4.61"/><polygon class="cls-6" points="958.14 482.13 948.15 482.13 948.15 480.88 956.89 480.88 956.89 474.52 958.14 474.52 958.14 482.13"/><polygon class="cls-6" points="975.8 482.13 965.82 482.13 965.82 474.52 967.07 474.52 967.07 480.88 975.8 480.88 975.8 482.13"/><polygon class="cls-6" points="958.14 492.38 956.89 492.38 956.89 486.01 948.15 486.01 948.15 484.76 958.14 484.76 958.14 492.38"/><polygon class="cls-6" points="967.07 492.38 965.82 492.38 965.82 484.76 975.8 484.76 975.8 486.01 967.07 486.01 967.07 492.38"/><path class="cls-6" d="M710,415a33.6,33.6,0,1,1,33.6-33.59A33.63,33.63,0,0,1,710,415m0-65.94a32.35,32.35,0,1,0,32.35,32.35A32.38,32.38,0,0,0,710,349.07" transform="translate(0 0)"/><path class="cls-6" d="M710,384a2.24,2.24,0,1,1,2.24-2.24A2.24,2.24,0,0,1,710,384m0-3.23a1,1,0,0,0,0,2,1,1,0,1,0,0-2" transform="translate(0 0)"/><rect class="cls-6" x="703.09" y="344.47" width="1.25" height="4.61"/><rect class="cls-6" x="715.84" y="344.47" width="1.25" height="4.61"/><rect class="cls-6" x="703.09" y="413.98" width="1.25" height="4.61"/><rect class="cls-6" x="715.84" y="413.98" width="1.25" height="4.61"/><polygon class="cls-6" points="706.12 380.16 696.14 380.16 696.14 378.91 704.87 378.91 704.87 372.54 706.12 372.54 706.12 380.16"/><polygon class="cls-6" points="723.78 380.16 713.8 380.16 713.8 372.54 715.05 372.54 715.05 378.91 723.78 378.91 723.78 380.16"/><polygon class="cls-6" points="706.12 390.4 704.87 390.4 704.87 384.03 696.14 384.03 696.14 382.78 706.12 382.78 706.12 390.4"/><polygon class="cls-6" points="715.05 390.4 713.8 390.4 713.8 382.78 723.78 382.78 723.78 384.03 715.05 384.03 715.05 390.4"/><path class="cls-6" d="M710,517a33.6,33.6,0,1,1,33.6-33.6A33.63,33.63,0,0,1,710,517m0-65.94a32.35,32.35,0,1,0,32.35,32.34A32.38,32.38,0,0,0,710,451.05" transform="translate(0 0)"/><path class="cls-6" d="M710,486a2.24,2.24,0,1,1,2.24-2.24A2.25,2.25,0,0,1,710,486m0-3.23a1,1,0,1,0,1,1,1,1,0,0,0-1-1" transform="translate(0 0)"/><rect class="cls-6" x="703.09" y="446.45" width="1.25" height="4.61"/><rect class="cls-6" x="715.84" y="446.45" width="1.25" height="4.61"/><rect class="cls-6" x="703.09" y="515.96" width="1.25" height="4.61"/><rect class="cls-6" x="715.84" y="515.96" width="1.25" height="4.61"/><polygon class="cls-6" points="706.12 482.13 696.14 482.13 696.14 480.88 704.87 480.88 704.87 474.52 706.12 474.52 706.12 482.13"/><polygon class="cls-6" points="723.78 482.13 713.8 482.13 713.8 474.52 715.05 474.52 715.05 480.88 723.78 480.88 723.78 482.13"/><polygon class="cls-6" points="706.12 492.38 704.87 492.38 704.87 486.01 696.14 486.01 696.14 484.76 706.12 484.76 706.12 492.38"/><polygon class="cls-6" points="715.05 492.38 713.8 492.38 713.8 484.76 723.78 484.76 723.78 486.01 715.05 486.01 715.05 492.38"/><path class="cls-6" d="M836,466.32a33.6,33.6,0,1,1,33.6-33.59A33.63,33.63,0,0,1,836,466.32m0-65.94a32.35,32.35,0,1,0,32.35,32.35A32.38,32.38,0,0,0,836,400.38" transform="translate(0 0)"/><rect class="cls-6" x="835.35" y="336.08" width="1.25" height="191.98"/><rect class="cls-6" x="885.03" y="336.08" width="1.25" height="191.98"/><rect class="cls-6" x="785.55" y="336.08" width="1.25" height="191.98"/><path class="cls-6" d="M675.74,441.58h-9.2v-1.25h8.68c6.91-7.14,1.12-14.89,0-16.28h-8.65V422.8h9.22l.18.21c.09.09,8.58,9.79,0,18.39Z" transform="translate(0 0)"/><path class="cls-6" d="M1005.32,441.58h-9.2l-.18-.18c-8.61-8.6-.11-18.3,0-18.39l.19-.21h9.22v1.25h-8.65c-1.15,1.39-6.94,9.14,0,16.28h8.68Z" transform="translate(0 0)"/></g><g id="Layer_13" data-name="Layer 13"><text class="cls-7" transform="translate(793.39 275.57)">Л<tspan class="cls-8" x="6.61" y="0">е</tspan><tspan class="cls-9" x="11.96" y="0">д</tspan><tspan x="17.64" y="0">овая арена</tspan></text><text class="cls-7" transform="translate(793.39 328.93)">Л<tspan class="cls-8" x="6.61" y="0">е</tspan><tspan class="cls-9" x="11.96" y="0">д</tspan><tspan x="17.64" y="0">овая арена</tspan></text><text class="cls-7" transform="translate(486.7 130.4)">Familia</text><text class="cls-10" transform="translate(267.61 232.26)">Гимнастический<tspan x="20.67" y="10.92">центр</tspan></text><text class="cls-11" transform="translate(331.62 194.84)">2<tspan class="cls-12" x="3.63" y="0">S</tspan><tspan class="cls-13" x="7.19" y="0">c</tspan><tspan x="10.34" y="0">oop</tspan></text><text class="cls-7" transform="translate(421.21 406.48)">Батутный <tspan class="cls-8" x="47.81" y="0">ц</tspan><tspan x="53.71" y="0">ентр</tspan></text><text class="cls-7" transform="translate(124.27 497.36)">Спо<tspan class="cls-9" x="18.58" y="0">р</tspan><tspan x="24.7" y="0">тивная пло</tspan><tspan class="cls-8" x="78.07" y="0">щ</tspan><tspan x="86.18" y="0">ад</tspan><tspan class="cls-14" x="97.44" y="0">к</tspan><tspan x="102.23" y="0">а</tspan></text><text class="cls-15" transform="translate(172.59 136.93)">D<tspan class="cls-16" x="13.47" y="0">D</tspan><tspan x="26.36" y="0">X</tspan></text></g><g id="Layer_11" data-name="Layer 11"><path class="cls-17" d="M543.92,557.91h-.09a.65.65,0,0,1-.55-.52l-1.22-6.26a.66.66,0,0,1,.52-.78.67.67,0,0,1,.77.52l.86,4.42.78-1.5a.66.66,0,0,1,.89-.28.67.67,0,0,1,.28.89l-1.65,3.16A.67.67,0,0,1,543.92,557.91Z" transform="translate(0 0)"/><path class="cls-17" d="M547.23,557.91a.67.67,0,0,1-.59-.36L545,554.39a.66.66,0,1,1,1.16-.61l.78,1.5.86-4.42a.66.66,0,1,1,1.29.26l-1.22,6.26a.65.65,0,0,1-.55.52Z" transform="translate(0 0)"/><path class="cls-17" d="M551.72,557.91a2.27,2.27,0,0,1-2.27-2.27v-3a2.27,2.27,0,1,1,4.53,0v.1a.66.66,0,0,1-1.32,0v-.1a.95.95,0,1,0-1.89,0v3a.95.95,0,1,0,1.89,0v-.13a.66.66,0,0,1,1.32,0v.13A2.27,2.27,0,0,1,551.72,557.91Z" transform="translate(0 0)"/><path class="cls-17" d="M553.57,563.69H542.46a4,4,0,0,1-4-4v-11.1a4,4,0,0,1,4-4h11.11a4,4,0,0,1,4,4v11.1A4,4,0,0,1,553.57,563.69ZM542.46,546.2a2.38,2.38,0,0,0-2.37,2.37v11.1a2.38,2.38,0,0,0,2.37,2.37h11.11a2.38,2.38,0,0,0,2.37-2.37v-11.1a2.38,2.38,0,0,0-2.37-2.37Z" transform="translate(0 0)"/><path class="cls-17" d="M572.3,557.91h-.1a.67.67,0,0,1-.55-.52l-1.21-6.26a.66.66,0,0,1,.52-.78.67.67,0,0,1,.77.52l.86,4.42.77-1.5a.66.66,0,0,1,1.17.61l-1.65,3.16A.66.66,0,0,1,572.3,557.91Z" transform="translate(0 0)"/><path class="cls-17" d="M575.6,557.91a.66.66,0,0,1-.58-.36l-1.65-3.16a.66.66,0,0,1,.28-.89.67.67,0,0,1,.89.28l.78,1.5.85-4.42a.68.68,0,0,1,.78-.52.67.67,0,0,1,.52.78l-1.22,6.26a.67.67,0,0,1-.55.52Z" transform="translate(0 0)"/><path class="cls-17" d="M580.09,557.91a2.27,2.27,0,0,1-2.26-2.27v-3a2.26,2.26,0,1,1,4.52,0v.1a.66.66,0,1,1-1.31,0v-.1a.95.95,0,0,0-1.9,0v3a1,1,0,0,0,1.9,0v-.13a.66.66,0,1,1,1.31,0v.13A2.27,2.27,0,0,1,580.09,557.91Z" transform="translate(0 0)"/><path class="cls-17" d="M581.94,563.69h-11.1a4,4,0,0,1-4-4v-11.1a4,4,0,0,1,4-4h11.1a4,4,0,0,1,4,4v11.1A4,4,0,0,1,581.94,563.69Zm-11.1-17.49a2.37,2.37,0,0,0-2.37,2.37v11.1a2.37,2.37,0,0,0,2.37,2.37h11.1a2.37,2.37,0,0,0,2.37-2.37v-11.1a2.37,2.37,0,0,0-2.37-2.37Z" transform="translate(0 0)"/><path class="cls-17" d="M557.91,513a1.29,1.29,0,0,1-1.21-1.11v-.47h-.1a.46.46,0,0,1-.34-.16.47.47,0,0,1-.1-.36l.2-1.14a.45.45,0,0,1-.23,0c-.32-.1-.51-.4-.58-.88-.15-1.09.37-3.49,1.17-4a3.44,3.44,0,0,1,1.88-.55.45.45,0,0,1,0,.89,2.53,2.53,0,0,0-1.34.4,5.48,5.48,0,0,0-.82,3.06,6.54,6.54,0,0,0,.35-1.23l.17-1a.45.45,0,0,1,.51-.37.45.45,0,0,1,.38.5c0,.28-.1.69-.19,1.12l-.49,2.88h1.44a.45.45,0,0,1,.45.45v.91a1.12,1.12,0,0,1-1.12,1.12m-.32-1.19s.09.29.32.29c.05,0,.2,0,.22-.25v-.43h-.54v.39h0" transform="translate(0 0)"/><path class="cls-17" d="M559.25,513a1.13,1.13,0,0,1-1.12-1.1V511a.45.45,0,0,1,.45-.45H560l-.49-2.88c-.1-.43-.16-.84-.2-1.12a.45.45,0,0,1,.38-.5.45.45,0,0,1,.51.37l.17,1a7.4,7.4,0,0,0,.35,1.23,5.62,5.62,0,0,0-.81-3.07,2.76,2.76,0,0,0-1.34-.39.43.43,0,0,1-.47-.43.46.46,0,0,1,.43-.46,3.39,3.39,0,0,1,1.88.54c.8.55,1.32,2.95,1.17,4a1,1,0,0,1-.57.88.49.49,0,0,1-.23,0l.19,1.14a.43.43,0,0,1-.1.36.44.44,0,0,1-.34.16h-.09v.39a1.31,1.31,0,0,1-1.22,1.19m-.22-1.58v.46c0,.22.17.22.22.22.25,0,.32-.34.33-.37v-.31Z" transform="translate(0 0)"/><path class="cls-17" d="M558.58,504.49a1.57,1.57,0,1,1,1.57-1.57,1.57,1.57,0,0,1-1.57,1.57m0-2.24a.67.67,0,1,0,.67.67.67.67,0,0,0-.67-.67" transform="translate(0 0)"/><path class="cls-17" d="M565.48,504.49a1.57,1.57,0,1,1,1.56-1.57,1.57,1.57,0,0,1-1.56,1.57m0-2.24a.67.67,0,1,0,.67.67.68.68,0,0,0-.67-.67" transform="translate(0 0)"/><path class="cls-17" d="M564.8,513a1.08,1.08,0,0,1-1-1v-2.2h-.1a1.13,1.13,0,0,1-1.06-1.18v-2.17a2.68,2.68,0,0,1,2.88-2.2.45.45,0,0,1,0,.89,1.78,1.78,0,0,0-2,1.38v2.1a.29.29,0,0,0,.07.21,10.36,10.36,0,0,0,.19-2.21v-.17a.46.46,0,0,1,.45-.45h0a.45.45,0,0,1,.45.45v5.47s0,.17.15.17a.28.28,0,0,0,.23-.18v-2.19a.45.45,0,1,1,.89,0V512a.45.45,0,0,1,0,.12,1.19,1.19,0,0,1-1.11.89" transform="translate(0 0)"/><path class="cls-17" d="M566.14,513a1.19,1.19,0,0,1-1.1-.89.49.49,0,0,1,0-.12v-2.26a.45.45,0,1,1,.89,0v2.19c0,.06.1.18.22.18s.16-.22.16-.22v-5.42a.45.45,0,0,1,.45-.45h0a.46.46,0,0,1,.45.45v.18a10.32,10.32,0,0,0,.19,2.2.29.29,0,0,0,.07-.21v-2.17a1.8,1.8,0,0,0-2-1.31.45.45,0,1,1,0-.89,2.68,2.68,0,0,1,2.87,2.14v2.23a1.13,1.13,0,0,1-1.06,1.18h-.09V512a1.11,1.11,0,0,1-1.06,1.06" transform="translate(0 0)"/><path class="cls-17" d="M567.5,517H556.4a4,4,0,0,1-4-4v-11.1a4,4,0,0,1,4-4h11.1a4,4,0,0,1,4,4V513A4,4,0,0,1,567.5,517Zm-11.1-17.49a2.37,2.37,0,0,0-2.37,2.37V513a2.37,2.37,0,0,0,2.37,2.37h11.1a2.38,2.38,0,0,0,2.38-2.37v-11.1a2.38,2.38,0,0,0-2.38-2.37Z" transform="translate(0 0)"/><path class="cls-17" d="M561,494.83a.49.49,0,0,1-.35-.15l-1.21-1.21-1.21,1.21a.49.49,0,1,1-.7-.7l1.56-1.56a.52.52,0,0,1,.7,0l1.56,1.56a.5.5,0,0,1-.35.85Z" transform="translate(0 0)"/><path class="cls-17" d="M559.4,497.25a.49.49,0,0,1-.49-.49V493a.49.49,0,0,1,1,0v3.76A.49.49,0,0,1,559.4,497.25Z" transform="translate(0 0)"/><path class="cls-17" d="M564.24,497.25a.54.54,0,0,1-.35-.14l-1.56-1.56a.49.49,0,0,1,.7-.7l1.21,1.21,1.21-1.21a.49.49,0,0,1,.7.7l-1.56,1.56A.52.52,0,0,1,564.24,497.25Z" transform="translate(0 0)"/><path class="cls-17" d="M564.24,497a.49.49,0,0,1-.49-.49v-3.76a.49.49,0,0,1,.49-.49.5.5,0,0,1,.5.49v3.76A.5.5,0,0,1,564.24,497Z" transform="translate(0 0)"/><path class="cls-17" d="M469.15,295.53a1.29,1.29,0,0,1-1.21-1.1V294h-.09a.44.44,0,0,1-.34-.16.4.4,0,0,1-.1-.36l.19-1.14a.49.49,0,0,1-.23,0,1,1,0,0,1-.57-.88c-.16-1.09.37-3.49,1.16-4a3.51,3.51,0,0,1,1.88-.54.45.45,0,0,1,0,.89,2.62,2.62,0,0,0-1.34.39,5.6,5.6,0,0,0-.81,3.07,8.53,8.53,0,0,0,.35-1.23l.17-1a.44.44,0,0,1,.51-.37.44.44,0,0,1,.37.5c0,.28-.1.68-.19,1.12l-.49,2.88h1.44a.45.45,0,0,1,.45.45v.91a1.11,1.11,0,0,1-1.12,1.11m-.32-1.19s.09.3.32.3c.05,0,.21,0,.23-.25V294h-.55v.39h0" transform="translate(0 0)"/><path class="cls-17" d="M470.5,295.53a1.11,1.11,0,0,1-1.12-1.09v-.93a.45.45,0,0,1,.45-.45h1.44l-.49-2.88c-.09-.43-.16-.84-.19-1.12a.44.44,0,0,1,.37-.5.45.45,0,0,1,.51.37l.17,1a7.27,7.27,0,0,0,.36,1.23,5.71,5.71,0,0,0-.82-3.07,2.62,2.62,0,0,0-1.34-.39.42.42,0,0,1-.46-.43.44.44,0,0,1,.43-.46,3.41,3.41,0,0,1,1.88.54c.8.55,1.32,3,1.17,4a1,1,0,0,1-.58.88.49.49,0,0,1-.23,0l.19,1.14a.4.4,0,0,1-.1.36.44.44,0,0,1-.34.16h-.09v.39a1.29,1.29,0,0,1-1.21,1.18m-.23-1.57v.46a.21.21,0,0,0,.23.22c.24,0,.32-.34.33-.38V294Z" transform="translate(0 0)"/><path class="cls-17" d="M469.83,287a1.57,1.57,0,1,1,1.56-1.56,1.56,1.56,0,0,1-1.56,1.56m0-2.23a.67.67,0,1,0,.67.67.68.68,0,0,0-.67-.67" transform="translate(0 0)"/><path class="cls-17" d="M476.72,287a1.57,1.57,0,1,1,1.56-1.56,1.56,1.56,0,0,1-1.56,1.56m0-2.23a.67.67,0,1,0,.67.67.67.67,0,0,0-.67-.67" transform="translate(0 0)"/><path class="cls-17" d="M476.05,295.53a1.08,1.08,0,0,1-1.05-1v-2.2h-.1a1.14,1.14,0,0,1-1.06-1.18V289a2.68,2.68,0,0,1,2.88-2.2.45.45,0,1,1,0,.89,1.78,1.78,0,0,0-2,1.38v2.1a.29.29,0,0,0,.06.21,10.9,10.9,0,0,0,.2-2.21V289a.45.45,0,0,1,.44-.45h0a.45.45,0,0,1,.45.45v5.47s0,.17.16.17.19-.12.22-.18v-2.19a.45.45,0,1,1,.9,0v2.26a.5.5,0,0,1,0,.12,1.17,1.17,0,0,1-1.1.88" transform="translate(0 0)"/><path class="cls-17" d="M477.39,295.53a1.17,1.17,0,0,1-1.1-.88.5.5,0,0,1,0-.12v-2.26a.45.45,0,1,1,.9,0v2.19a.25.25,0,0,0,.22.18c.12,0,.16-.22.16-.22V289a.45.45,0,0,1,.45-.45h0a.45.45,0,0,1,.45.45v.17a11.07,11.07,0,0,0,.19,2.21.29.29,0,0,0,.07-.21V289a1.8,1.8,0,0,0-2-1.31.45.45,0,1,1,0-.89,2.67,2.67,0,0,1,2.87,2.14v2.23a1.14,1.14,0,0,1-1.06,1.18h-.1v2.13a1.1,1.1,0,0,1-1.05,1" transform="translate(0 0)"/><path class="cls-17" d="M478.75,299.53H467.64a4,4,0,0,1-4-4v-11.1a4,4,0,0,1,4-4h11.11a4,4,0,0,1,4,4v11.1A4,4,0,0,1,478.75,299.53ZM467.64,282a2.38,2.38,0,0,0-2.37,2.37v11.1a2.38,2.38,0,0,0,2.37,2.37h11.11a2.38,2.38,0,0,0,2.37-2.37v-11.1a2.38,2.38,0,0,0-2.37-2.37Z" transform="translate(0 0)"/><path class="cls-17" d="M472.2,277.35a.47.47,0,0,1-.35-.14L470.64,276l-1.21,1.21a.49.49,0,0,1-.69,0,.48.48,0,0,1,0-.7l1.55-1.56a.52.52,0,0,1,.7,0l1.56,1.56a.5.5,0,0,1,0,.7A.47.47,0,0,1,472.2,277.35Z" transform="translate(0 0)"/><path class="cls-17" d="M470.64,279.78a.49.49,0,0,1-.49-.49v-3.76a.5.5,0,0,1,1,0v3.76A.49.49,0,0,1,470.64,279.78Z" transform="translate(0 0)"/><path class="cls-17" d="M475.48,279.78a.49.49,0,0,1-.34-.14l-1.56-1.56a.48.48,0,0,1,0-.7.5.5,0,0,1,.7,0l1.2,1.21,1.21-1.21a.49.49,0,0,1,.7.7l-1.56,1.56A.5.5,0,0,1,475.48,279.78Z" transform="translate(0 0)"/><path class="cls-17" d="M475.48,279.55a.49.49,0,0,1-.49-.49V275.3a.5.5,0,0,1,1,0v3.76A.49.49,0,0,1,475.48,279.55Z" transform="translate(0 0)"/><path class="cls-17" d="M415.87,89.84a1.28,1.28,0,0,1-1.21-1.1v-.47h-.1a.46.46,0,0,1-.34-.16.47.47,0,0,1-.1-.36l.2-1.14a.45.45,0,0,1-.23,0c-.32-.1-.51-.4-.58-.88-.15-1.09.37-3.49,1.17-4a3.49,3.49,0,0,1,1.88-.54.44.44,0,0,1,.43.46.45.45,0,0,1-.46.43,2.58,2.58,0,0,0-1.34.39c-.42.28-.89,2.23-.82,3.07a6.54,6.54,0,0,0,.35-1.23l.17-1a.44.44,0,0,1,.51-.37.45.45,0,0,1,.38.5c0,.28-.1.68-.19,1.12l-.49,2.88h1.44a.45.45,0,0,1,.45.45v.91a1.12,1.12,0,0,1-1.12,1.11m-.32-1.19s.09.3.32.3c.05,0,.2,0,.22-.25v-.43h-.54v.39h0" transform="translate(0 0)"/><path class="cls-17" d="M417.21,89.84a1.12,1.12,0,0,1-1.12-1.09v-.93a.45.45,0,0,1,.45-.45H418l-.5-2.88c-.09-.44-.15-.84-.19-1.12a.45.45,0,0,1,.38-.5.44.44,0,0,1,.51.37l.17,1a7.4,7.4,0,0,0,.35,1.23,5.6,5.6,0,0,0-.81-3.07,2.64,2.64,0,0,0-1.34-.39.43.43,0,0,1-.47-.43.45.45,0,0,1,.43-.46,3.39,3.39,0,0,1,1.88.54c.8.55,1.32,2.95,1.17,4a1,1,0,0,1-.57.88.51.51,0,0,1-.24,0l.2,1.14a.43.43,0,0,1-.1.36.44.44,0,0,1-.34.16h-.09v.39a1.3,1.3,0,0,1-1.22,1.18M417,88.27v.46c0,.22.17.22.22.22.25,0,.32-.34.33-.38v-.3Z" transform="translate(0 0)"/><path class="cls-17" d="M416.54,81.32a1.57,1.57,0,1,1,1.57-1.56,1.56,1.56,0,0,1-1.57,1.56m0-2.23a.67.67,0,1,0,.67.67.67.67,0,0,0-.67-.67" transform="translate(0 0)"/><path class="cls-17" d="M423.43,81.32A1.57,1.57,0,1,1,425,79.76a1.56,1.56,0,0,1-1.57,1.56m0-2.23a.67.67,0,1,0,.67.67.67.67,0,0,0-.67-.67" transform="translate(0 0)"/><path class="cls-17" d="M422.76,89.84a1.07,1.07,0,0,1-1-1v-2.2h-.09a1.13,1.13,0,0,1-1.06-1.18V83.31a2.67,2.67,0,0,1,2.87-2.2.45.45,0,1,1,0,.89,1.77,1.77,0,0,0-2,1.38v2.1a.29.29,0,0,0,.07.21,10.36,10.36,0,0,0,.19-2.21v-.17a.45.45,0,0,1,.45-.45h0a.45.45,0,0,1,.45.45v5.47s0,.17.15.17a.28.28,0,0,0,.23-.18V86.58a.45.45,0,1,1,.89,0v2.26a.49.49,0,0,1,0,.12,1.18,1.18,0,0,1-1.11.88" transform="translate(0 0)"/><path class="cls-17" d="M424.1,89.84A1.18,1.18,0,0,1,423,89a.49.49,0,0,1,0-.12V86.58a.45.45,0,1,1,.89,0v2.19c0,.06.1.18.22.18s.16-.22.16-.22V83.31a.45.45,0,0,1,.45-.45h0a.45.45,0,0,1,.45.45v.17a10.36,10.36,0,0,0,.19,2.21.29.29,0,0,0,.07-.21V83.31a1.81,1.81,0,0,0-2-1.31.45.45,0,0,1,0-.89,2.69,2.69,0,0,1,2.88,2.14v2.23a1.14,1.14,0,0,1-1.06,1.18h-.09v2.13a1.1,1.1,0,0,1-1.06,1" transform="translate(0 0)"/><path class="cls-17" d="M425.46,93.84h-11.1a4,4,0,0,1-4-4V78.72a4,4,0,0,1,4-4h11.1a4,4,0,0,1,4,4v11.1A4,4,0,0,1,425.46,93.84Zm-11.1-17.49A2.37,2.37,0,0,0,412,78.72v11.1a2.37,2.37,0,0,0,2.37,2.37h11.1a2.37,2.37,0,0,0,2.37-2.37V78.72a2.37,2.37,0,0,0-2.37-2.37Z" transform="translate(0 0)"/><path class="cls-17" d="M418.92,71.66a.46.46,0,0,1-.35-.14l-1.21-1.21-1.21,1.21a.49.49,0,1,1-.7-.7L417,69.26a.52.52,0,0,1,.7,0l1.56,1.56a.5.5,0,0,1,0,.7A.49.49,0,0,1,418.92,71.66Z" transform="translate(0 0)"/><path class="cls-17" d="M417.36,74.09a.49.49,0,0,1-.49-.49V69.84a.49.49,0,0,1,1,0V73.6A.49.49,0,0,1,417.36,74.09Z" transform="translate(0 0)"/><path class="cls-17" d="M422.2,74.09a.52.52,0,0,1-.35-.14l-1.56-1.56a.49.49,0,1,1,.7-.7l1.21,1.21,1.21-1.21a.49.49,0,0,1,.7.7L422.55,74A.52.52,0,0,1,422.2,74.09Z" transform="translate(0 0)"/><path class="cls-17" d="M422.2,73.86a.49.49,0,0,1-.49-.49V69.61a.49.49,0,0,1,1,0v3.76A.49.49,0,0,1,422.2,73.86Z" transform="translate(0 0)"/><path class="cls-17" d="M1045.57,37a1.29,1.29,0,0,1-1.21-1.11v-.47h-.09a.45.45,0,0,1-.45-.52l.2-1.14a.49.49,0,0,1-.23,0c-.32-.1-.51-.4-.58-.88-.15-1.08.37-3.49,1.17-4a3.44,3.44,0,0,1,1.88-.55.45.45,0,0,1,0,.9,2.49,2.49,0,0,0-1.34.39,5.48,5.48,0,0,0-.82,3.06,6.32,6.32,0,0,0,.35-1.23l.17-1a.45.45,0,0,1,.89.13c0,.28-.1.69-.19,1.12l-.49,2.89h1.44a.45.45,0,0,1,.45.44v.91a1.12,1.12,0,0,1-1.12,1.12m-.32-1.19s.09.29.32.29c0,0,.21,0,.23-.25v-.43h-.55v.39h0" transform="translate(0 0)"/><path class="cls-17" d="M1046.91,37a1.11,1.11,0,0,1-1.11-1.1V35a.44.44,0,0,1,.44-.44h1.45l-.49-2.89a9.69,9.69,0,0,1-.19-1.12.44.44,0,0,1,.37-.5.46.46,0,0,1,.51.37l.17,1a8.16,8.16,0,0,0,.35,1.23,5.56,5.56,0,0,0-.81-3.06,2.51,2.51,0,0,0-1.34-.39.43.43,0,0,1-.46-.44.45.45,0,0,1,.43-.46,3.42,3.42,0,0,1,1.87.55c.8.54,1.33,2.95,1.17,4a1,1,0,0,1-.57.88.49.49,0,0,1-.23,0l.19,1.14a.43.43,0,0,1-.1.36.44.44,0,0,1-.34.16h-.09v.39a1.31,1.31,0,0,1-1.22,1.19m-.22-1.58v.46c0,.22.17.22.22.22.25,0,.33-.34.33-.37v-.31Z" transform="translate(0 0)"/><path class="cls-17" d="M1046.24,28.51a1.57,1.57,0,1,1,1.57-1.57,1.57,1.57,0,0,1-1.57,1.57m0-2.24a.67.67,0,1,0,.67.67.67.67,0,0,0-.67-.67" transform="translate(0 0)"/><path class="cls-17" d="M1053.14,28.51a1.57,1.57,0,1,1,1.56-1.57,1.57,1.57,0,0,1-1.56,1.57m0-2.24a.67.67,0,1,0,0,1.34.67.67,0,0,0,0-1.34" transform="translate(0 0)"/><path class="cls-17" d="M1052.47,37a1.08,1.08,0,0,1-1-1v-2.2h-.1a1.13,1.13,0,0,1-1.06-1.18V30.49a2.68,2.68,0,0,1,2.88-2.2.45.45,0,0,1,0,.89,1.78,1.78,0,0,0-2,1.38v2.1a.29.29,0,0,0,.07.21,10.36,10.36,0,0,0,.19-2.21v-.17a.45.45,0,0,1,.45-.44h0a.44.44,0,0,1,.45.44V36s0,.16.16.16.19-.12.22-.18V33.76a.45.45,0,0,1,.89,0V36a.37.37,0,0,1,0,.11,1.19,1.19,0,0,1-1.1.89" transform="translate(0 0)"/><path class="cls-17" d="M1053.81,37a1.19,1.19,0,0,1-1.11-.89.37.37,0,0,1,0-.11V33.76a.45.45,0,0,1,.89,0V36a.28.28,0,0,0,.23.18c.12,0,.16-.21.16-.22V30.49a.44.44,0,0,1,.45-.44h0a.45.45,0,0,1,.45.44v.18a10.25,10.25,0,0,0,.19,2.2.29.29,0,0,0,.07-.21V30.49a1.8,1.8,0,0,0-2-1.31.45.45,0,1,1,0-.89,2.68,2.68,0,0,1,2.87,2.14v2.23a1.13,1.13,0,0,1-1,1.18h-.1V36a1.11,1.11,0,0,1-1,1.06" transform="translate(0 0)"/><path class="cls-17" d="M1055.16,41h-11.1a4,4,0,0,1-4-4V25.9a4,4,0,0,1,4-4h11.1a4,4,0,0,1,4,4V37A4,4,0,0,1,1055.16,41Zm-11.1-17.49a2.37,2.37,0,0,0-2.37,2.37V37a2.38,2.38,0,0,0,2.37,2.38h11.1a2.39,2.39,0,0,0,2.38-2.38V25.9a2.38,2.38,0,0,0-2.38-2.37Z" transform="translate(0 0)"/><path class="cls-17" d="M1048.62,18.85a.49.49,0,0,1-.35-.15l-1.21-1.21-1.21,1.21a.49.49,0,0,1-.7,0,.5.5,0,0,1,0-.7l1.56-1.55a.5.5,0,0,1,.7,0L1049,18a.5.5,0,0,1,0,.7A.49.49,0,0,1,1048.62,18.85Z" transform="translate(0 0)"/><path class="cls-17" d="M1047.06,21.27a.49.49,0,0,1-.49-.49V17a.49.49,0,1,1,1,0v3.76A.49.49,0,0,1,1047.06,21.27Z" transform="translate(0 0)"/><path class="cls-17" d="M1051.9,21.27a.49.49,0,0,1-.35-.14L1050,19.57a.49.49,0,0,1,.7-.7l1.21,1.21,1.21-1.21a.49.49,0,1,1,.7.7l-1.56,1.56A.46.46,0,0,1,1051.9,21.27Z" transform="translate(0 0)"/><path class="cls-17" d="M1051.9,21a.49.49,0,0,1-.49-.49V16.79a.5.5,0,0,1,1,0v3.76A.49.49,0,0,1,1051.9,21Z" transform="translate(0 0)"/><path class="cls-18" d="M447.53,311.28h-3.26a1.94,1.94,0,0,1-1.58-2.06,1.67,1.67,0,0,1,1.58-1.86h1.87l5.07-5.07a.46.46,0,0,1,.32-.13h3.38l.12,0a2,2,0,0,1,1.34,2,1.71,1.71,0,0,1-1.5,1.81H453l-5.17,5.16a.41.41,0,0,1-.31.14m-3.26-3c-.16,0-.67.1-.67,1s.62,1.13.75,1.16h3l5.17-5.17a.46.46,0,0,1,.32-.13h2a.82.82,0,0,0,.65-.91,1.11,1.11,0,0,0-.64-1.1h-3.12l-5.06,5.07a.48.48,0,0,1-.32.13Z" transform="translate(0 0)"/><path class="cls-17" d="M447.51,307a.5.5,0,0,1-.5-.5v-3.09a.65.65,0,0,1,0-.19,1.7,1.7,0,0,1,1.52-1.05,1.72,1.72,0,0,1,1.51.95.44.44,0,0,1,.05.22v1a.5.5,0,0,1-.5.5.5.5,0,0,1-.5-.5v-.9a.7.7,0,0,0-.56-.31.69.69,0,0,0-.56.37v3a.5.5,0,0,1-.5.5" transform="translate(0 0)"/><path class="cls-17" d="M448.49,302.64a1.48,1.48,0,1,1,1.48-1.48,1.48,1.48,0,0,1-1.48,1.48m0-2a.49.49,0,0,0-.48.48.48.48,0,0,0,.48.48.47.47,0,0,0,.48-.48.48.48,0,0,0-.48-.48" transform="translate(0 0)"/><path class="cls-17" d="M455.08,315.61H444a4,4,0,0,1-4-4v-11.1a4,4,0,0,1,4-4h11.1a4,4,0,0,1,4,4v11.1A4,4,0,0,1,455.08,315.61ZM444,298.12a2.37,2.37,0,0,0-2.37,2.37v11.1A2.37,2.37,0,0,0,444,314h11.1a2.37,2.37,0,0,0,2.37-2.37v-11.1a2.37,2.37,0,0,0-2.37-2.37Z" transform="translate(0 0)"/><path class="cls-18" d="M577.44,311.28h-3.26a2,2,0,0,1-1.57-2.06,1.66,1.66,0,0,1,1.57-1.86h1.88l5.06-5.07a.48.48,0,0,1,.32-.13h3.38l.13,0a2,2,0,0,1,1.33,2,1.71,1.71,0,0,1-1.5,1.81h-1.85l-5.17,5.16a.43.43,0,0,1-.32.14m-3.26-3c-.16,0-.67.1-.67,1s.63,1.13.75,1.16h3l5.17-5.17a.48.48,0,0,1,.32-.13h2a.81.81,0,0,0,.65-.91,1.12,1.12,0,0,0-.63-1.1h-3.12l-5.07,5.07a.46.46,0,0,1-.32.13Z" transform="translate(0 0)"/><path class="cls-17" d="M577.43,307a.5.5,0,0,1-.5-.5v-3.09a.43.43,0,0,1,0-.19,1.69,1.69,0,0,1,1.51-1.05,1.73,1.73,0,0,1,1.52.95.59.59,0,0,1,0,.22v1a.5.5,0,0,1-1,0v-.9a.72.72,0,0,0-.57-.31.67.67,0,0,0-.55.37v3a.5.5,0,0,1-.5.5" transform="translate(0 0)"/><path class="cls-17" d="M578.41,302.64a1.48,1.48,0,1,1,1.48-1.48,1.48,1.48,0,0,1-1.48,1.48m0-2a.48.48,0,0,0-.48.48.47.47,0,0,0,.48.48.48.48,0,0,0,.48-.48.49.49,0,0,0-.48-.48" transform="translate(0 0)"/><path class="cls-17" d="M585,315.61H573.89a4,4,0,0,1-4-4v-11.1a4,4,0,0,1,4-4H585a4,4,0,0,1,4,4v11.1A4,4,0,0,1,585,315.61Zm-11.11-17.49a2.37,2.37,0,0,0-2.37,2.37v11.1a2.37,2.37,0,0,0,2.37,2.37H585a2.38,2.38,0,0,0,2.37-2.37v-11.1a2.38,2.38,0,0,0-2.37-2.37Z" transform="translate(0 0)"/></g></svg>